<svg xmlns="http://www.w3.org/2000/svg" width="247" height="59" fill="none"><path fill="#12805D" d="M26.469 40a.75.75 0 0 1-.44-.14L20 35.488l-6.029 4.37a.75.75 0 0 1-1.15-.847l2.35-6.964-6.093-4.18A.75.75 0 0 1 9.5 26.5h7.518l2.268-6.982a.75.75 0 0 1 1.427 0l2.27 6.984H30.5a.75.75 0 0 1 .424 1.37l-6.096 4.176 2.35 6.962a.75.75 0 0 1-.71.99M58.469 40a.75.75 0 0 1-.44-.14L52 35.488l-6.029 4.37a.75.75 0 0 1-1.15-.847l2.35-6.964-6.093-4.18A.75.75 0 0 1 41.5 26.5h7.518l2.268-6.982a.75.75 0 0 1 1.427 0l2.27 6.984H62.5a.75.75 0 0 1 .424 1.37l-6.096 4.176 2.35 6.962a.75.75 0 0 1-.71.99M90.469 40a.75.75 0 0 1-.44-.14L84 35.488l-6.029 4.37a.75.75 0 0 1-1.15-.847l2.35-6.964-6.093-4.18A.75.75 0 0 1 73.5 26.5h7.518l2.269-6.982a.75.75 0 0 1 1.426 0l2.27 6.984H94.5a.75.75 0 0 1 .424 1.37l-6.096 4.176 2.35 6.962a.75.75 0 0 1-.71.99M122.469 40a.75.75 0 0 1-.44-.14L116 35.488l-6.029 4.37a.748.748 0 0 1-1.15-.847l2.351-6.964-6.094-4.18a.745.745 0 0 1-.293-.839.75.75 0 0 1 .715-.529h7.518l2.269-6.982a.745.745 0 0 1 .713-.519.75.75 0 0 1 .713.519l2.269 6.984h7.518a.75.75 0 0 1 .424 1.37l-6.096 4.176 2.35 6.962a.75.75 0 0 1-.101.677.75.75 0 0 1-.608.313"/><path stroke="#12805D" stroke-linejoin="round" stroke-width="2" d="M158.5 27.25h-8.062L148 19.75l-2.438 7.5H137.5l6.562 4.5-2.531 7.5L148 34.563l6.469 4.687-2.531-7.5z"/><path fill="#12805D" d="M148 19.75v14.813l-6.469 4.687 2.531-7.5-6.562-4.5h8.062zM195.055 33.69h-2.139V37h-1.582v-3.31h-6.904v-1.368l6.797-9.678h1.689v9.58h2.139zm-3.721-1.465v-4.668q0-.537.01-.967.01-.44.029-.81.02-.382.029-.723.02-.342.03-.674h-.078q-.186.39-.43.83a8 8 0 0 1-.479.771l-4.404 6.24zm5.176 3.76q0-.685.332-.967.333-.294.811-.293.498 0 .84.293.34.282.341.966 0 .674-.341.987a1.22 1.22 0 0 1-.84.302q-.478 0-.811-.302-.332-.313-.332-.987m8.887-7.715q1.455 0 2.53.498 1.074.488 1.66 1.425.595.938.595 2.276 0 1.465-.634 2.529-.635 1.055-1.827 1.63-1.19.568-2.851.567-1.113 0-2.07-.195t-1.612-.586v-1.543q.714.43 1.729.684t1.972.254q1.085 0 1.895-.342a2.75 2.75 0 0 0 1.27-1.055q.459-.712.458-1.787 0-1.425-.878-2.197-.87-.782-2.754-.782a10 10 0 0 0-1.328.098q-.723.098-1.192.215l-.82-.537.547-6.7h7.099v1.485h-5.713l-.361 4.307q.372-.078.957-.157a9 9 0 0 1 1.328-.087m17.462-5.547L217.546 37h-1.601l5.322-14.277zm10.118 5.547q1.455 0 2.529.498 1.075.488 1.66 1.425.597.938.596 2.276 0 1.465-.635 2.529-.635 1.055-1.826 1.63-1.192.568-2.851.567-1.114 0-2.071-.195t-1.611-.586v-1.543q.713.43 1.728.684 1.017.254 1.973.254 1.084 0 1.895-.342.82-.352 1.269-1.055.459-.712.459-1.787 0-1.425-.879-2.197-.869-.782-2.754-.782-.605 0-1.328.098t-1.191.215l-.82-.537.546-6.7h7.1v1.485h-5.713l-.361 4.307q.37-.078.957-.157a9 9 0 0 1 1.328-.087"/></svg>