<svg width="247" height="59" viewBox="0 0 247 59" fill="none" xmlns="http://www.w3.org/2000/svg">
<path d="M26.4687 40C26.3109 40.0006 26.1568 39.9514 26.0286 39.8594L20 35.4887L13.9714 39.8594C13.8426 39.9528 13.6874 40.0028 13.5283 40.0022C13.3692 40.0017 13.2144 39.9505 13.0863 39.8561C12.9582 39.7618 12.8634 39.6291 12.8156 39.4774C12.7679 39.3256 12.7696 39.1626 12.8206 39.0119L15.1719 32.0477L9.07811 27.8687C8.94611 27.7783 8.84649 27.6481 8.7938 27.497C8.7411 27.3459 8.7381 27.182 8.78523 27.0291C8.83235 26.8762 8.92713 26.7424 9.05573 26.6472C9.18432 26.552 9.33999 26.5004 9.49998 26.5H17.0178L19.2865 19.518C19.3354 19.3672 19.4308 19.2358 19.5589 19.1427C19.6871 19.0495 19.8415 18.9993 20 18.9993C20.1584 18.9993 20.3128 19.0495 20.441 19.1427C20.5692 19.2358 20.6645 19.3672 20.7134 19.518L22.9822 26.5023H30.5C30.6602 26.5023 30.8162 26.5535 30.9452 26.6485C31.0741 26.7435 31.1693 26.8773 31.2167 27.0303C31.2641 27.1833 31.2613 27.3475 31.2087 27.4988C31.156 27.6501 31.0563 27.7806 30.9242 27.8711L24.8281 32.0477L27.1779 39.01C27.216 39.1227 27.2267 39.2429 27.2092 39.3606C27.1916 39.4782 27.1464 39.59 27.0771 39.6868C27.0078 39.7835 26.9165 39.8623 26.8107 39.9168C26.7049 39.9713 26.5877 39.9998 26.4687 40Z" fill="#12805D"></path>
<path d="M58.4687 40C58.3109 40.0006 58.1568 39.9514 58.0286 39.8594L52 35.4887L45.9714 39.8594C45.8426 39.9528 45.6874 40.0028 45.5283 40.0022C45.3692 40.0017 45.2144 39.9505 45.0863 39.8561C44.9582 39.7618 44.8634 39.6291 44.8156 39.4774C44.7679 39.3256 44.7696 39.1626 44.8206 39.0119L47.1719 32.0477L41.0781 27.8687C40.9461 27.7783 40.8465 27.6481 40.7938 27.497C40.7411 27.3459 40.7381 27.182 40.7852 27.0291C40.8324 26.8762 40.9271 26.7424 41.0557 26.6472C41.1843 26.552 41.34 26.5004 41.5 26.5H49.0178L51.2865 19.518C51.3354 19.3672 51.4308 19.2358 51.5589 19.1427C51.6871 19.0495 51.8415 18.9993 52 18.9993C52.1584 18.9993 52.3128 19.0495 52.441 19.1427C52.5692 19.2358 52.6645 19.3672 52.7134 19.518L54.9822 26.5023H62.5C62.6602 26.5023 62.8162 26.5535 62.9452 26.6485C63.0741 26.7435 63.1693 26.8773 63.2167 27.0303C63.2641 27.1833 63.2613 27.3475 63.2087 27.4988C63.156 27.6501 63.0563 27.7806 62.9242 27.8711L56.8281 32.0477L59.1779 39.01C59.216 39.1227 59.2267 39.2429 59.2092 39.3606C59.1916 39.4782 59.1464 39.59 59.0771 39.6868C59.0078 39.7835 58.9165 39.8623 58.8107 39.9168C58.7049 39.9713 58.5877 39.9998 58.4687 40Z" fill="#12805D"></path>
<path d="M90.4687 40C90.3109 40.0006 90.1568 39.9514 90.0286 39.8594L84 35.4887L77.9714 39.8594C77.8426 39.9528 77.6874 40.0028 77.5283 40.0022C77.3692 40.0017 77.2144 39.9505 77.0863 39.8561C76.9582 39.7618 76.8634 39.6291 76.8156 39.4774C76.7679 39.3256 76.7696 39.1626 76.8206 39.0119L79.1719 32.0477L73.0781 27.8687C72.9461 27.7783 72.8465 27.6481 72.7938 27.497C72.7411 27.3459 72.7381 27.182 72.7852 27.0291C72.8324 26.8762 72.9271 26.7424 73.0557 26.6472C73.1843 26.552 73.34 26.5004 73.5 26.5H81.0178L83.2865 19.518C83.3354 19.3672 83.4308 19.2358 83.5589 19.1427C83.6871 19.0495 83.8415 18.9993 84 18.9993C84.1584 18.9993 84.3128 19.0495 84.441 19.1427C84.5692 19.2358 84.6645 19.3672 84.7134 19.518L86.9822 26.5023H94.5C94.6602 26.5023 94.8162 26.5535 94.9452 26.6485C95.0741 26.7435 95.1693 26.8773 95.2167 27.0303C95.2641 27.1833 95.2613 27.3475 95.2087 27.4988C95.156 27.6501 95.0563 27.7806 94.9242 27.8711L88.8281 32.0477L91.1779 39.01C91.216 39.1227 91.2267 39.2429 91.2092 39.3606C91.1916 39.4782 91.1464 39.59 91.0771 39.6868C91.0078 39.7835 90.9165 39.8623 90.8107 39.9168C90.7049 39.9713 90.5877 39.9998 90.4687 40Z" fill="#12805D"></path>
<path d="M122.469 40C122.311 40.0006 122.157 39.9514 122.029 39.8594L116 35.4887L109.971 39.8594C109.843 39.9528 109.687 40.0028 109.528 40.0022C109.369 40.0017 109.214 39.9505 109.086 39.8561C108.958 39.7618 108.863 39.6291 108.816 39.4774C108.768 39.3256 108.77 39.1626 108.821 39.0119L111.172 32.0477L105.078 27.8687C104.946 27.7783 104.846 27.6481 104.794 27.497C104.741 27.3459 104.738 27.182 104.785 27.0291C104.832 26.8762 104.927 26.7424 105.056 26.6472C105.184 26.552 105.34 26.5004 105.5 26.5H113.018L115.287 19.518C115.335 19.3672 115.431 19.2358 115.559 19.1427C115.687 19.0495 115.842 18.9993 116 18.9993C116.158 18.9993 116.313 19.0495 116.441 19.1427C116.569 19.2358 116.665 19.3672 116.713 19.518L118.982 26.5023H126.5C126.66 26.5023 126.816 26.5535 126.945 26.6485C127.074 26.7435 127.169 26.8773 127.217 27.0303C127.264 27.1833 127.261 27.3475 127.209 27.4988C127.156 27.6501 127.056 27.7806 126.924 27.8711L120.828 32.0477L123.178 39.01C123.216 39.1227 123.227 39.2429 123.209 39.3606C123.192 39.4782 123.146 39.59 123.077 39.6868C123.008 39.7835 122.916 39.8623 122.811 39.9168C122.705 39.9713 122.588 39.9998 122.469 40Z" fill="#12805D"></path>
<path d="M158.5 27.25H150.438L148 19.75L145.562 27.25H137.5L144.062 31.75L141.531 39.25L148 34.5625L154.469 39.25L151.938 31.75L158.5 27.25Z" stroke="#12805D" stroke-width="2" stroke-linejoin="round"></path>
<path d="M148 19.75V34.5625L141.531 39.25L144.062 31.75L137.5 27.25H145.562L148 19.75Z" fill="#12805D"></path>
<path d="M195.055 33.6895H192.916V37H191.334V33.6895H184.43V32.3223L191.227 22.6445H192.916V32.2246H195.055V33.6895ZM191.334 32.2246V27.5566C191.334 27.1986 191.337 26.8763 191.344 26.5898C191.35 26.2969 191.36 26.0267 191.373 25.7793C191.386 25.5254 191.396 25.2845 191.402 25.0566C191.415 24.8288 191.425 24.6042 191.432 24.3828H191.354C191.23 24.6432 191.087 24.9199 190.924 25.2129C190.768 25.4993 190.608 25.7565 190.445 25.9844L186.041 32.2246H191.334ZM196.51 35.9844C196.51 35.5286 196.621 35.2064 196.842 35.0176C197.064 34.8223 197.334 34.7246 197.653 34.7246C197.985 34.7246 198.265 34.8223 198.493 35.0176C198.72 35.2064 198.834 35.5286 198.834 35.9844C198.834 36.4336 198.72 36.7624 198.493 36.9707C198.265 37.1725 197.985 37.2734 197.653 37.2734C197.334 37.2734 197.064 37.1725 196.842 36.9707C196.621 36.7624 196.51 36.4336 196.51 35.9844ZM205.397 28.2695C206.367 28.2695 207.21 28.4355 207.927 28.7676C208.643 29.0931 209.196 29.5684 209.587 30.1934C209.984 30.8184 210.182 31.5768 210.182 32.4688C210.182 33.4453 209.971 34.2884 209.548 34.998C209.124 35.7012 208.516 36.2448 207.721 36.6289C206.927 37.0065 205.977 37.1953 204.87 37.1953C204.128 37.1953 203.438 37.1302 202.8 37C202.162 36.8698 201.624 36.6745 201.188 36.4141V34.8711C201.664 35.1576 202.24 35.3854 202.917 35.5547C203.594 35.724 204.251 35.8086 204.889 35.8086C205.612 35.8086 206.244 35.6947 206.784 35.4668C207.331 35.2324 207.754 34.8809 208.054 34.4121C208.36 33.9368 208.512 33.3411 208.512 32.625C208.512 31.6745 208.22 30.9421 207.634 30.4277C207.054 29.9069 206.136 29.6465 204.88 29.6465C204.476 29.6465 204.033 29.679 203.552 29.7441C203.07 29.8092 202.673 29.8809 202.36 29.959L201.54 29.4219L202.087 22.7227H209.186V24.207H203.473L203.112 28.5137C203.36 28.4616 203.679 28.4095 204.069 28.3574C204.46 28.2988 204.902 28.2695 205.397 28.2695ZM222.859 22.7227L217.546 37H215.945L221.267 22.7227H222.859ZM232.977 28.2695C233.947 28.2695 234.79 28.4355 235.506 28.7676C236.222 29.0931 236.776 29.5684 237.166 30.1934C237.564 30.8184 237.762 31.5768 237.762 32.4688C237.762 33.4453 237.551 34.2884 237.127 34.998C236.704 35.7012 236.095 36.2448 235.301 36.6289C234.507 37.0065 233.556 37.1953 232.45 37.1953C231.707 37.1953 231.017 37.1302 230.379 37C229.741 36.8698 229.204 36.6745 228.768 36.4141V34.8711C229.243 35.1576 229.819 35.3854 230.496 35.5547C231.174 35.724 231.831 35.8086 232.469 35.8086C233.192 35.8086 233.823 35.6947 234.364 35.4668C234.911 35.2324 235.334 34.8809 235.633 34.4121C235.939 33.9368 236.092 33.3411 236.092 32.625C236.092 31.6745 235.799 30.9421 235.213 30.4277C234.634 29.9069 233.716 29.6465 232.459 29.6465C232.056 29.6465 231.613 29.679 231.131 29.7441C230.649 29.8092 230.252 29.8809 229.94 29.959L229.12 29.4219L229.666 22.7227H236.766V24.207H231.053L230.692 28.5137C230.939 28.4616 231.258 28.4095 231.649 28.3574C232.039 28.2988 232.482 28.2695 232.977 28.2695Z" fill="#12805D"></path>
</svg>
