<svg width="20" height="21" viewBox="0 0 20 21" fill="none" xmlns="http://www.w3.org/2000/svg">
<path d="M19.3122 6.44062C19.173 6.30063 19.0075 6.18961 18.8252 6.11398C18.6429 6.03835 18.4474 5.99961 18.25 6H15.25V5.25C15.25 3.85761 14.6969 2.52226 13.7123 1.53769C12.7277 0.553123 11.3924 0 10 0C8.60761 0 7.27226 0.553123 6.28769 1.53769C5.30312 2.52226 4.75 3.85761 4.75 5.25V6H1.75C1.35218 6 0.970644 6.15804 0.68934 6.43934C0.408035 6.72064 0.25 7.10218 0.25 7.5V17.625C0.25 19.4531 1.79688 21 3.625 21H16.375C17.2593 21.0003 18.1086 20.6545 18.7413 20.0367C19.0596 19.733 19.3132 19.3679 19.4865 18.9634C19.6599 18.559 19.7495 18.1236 19.75 17.6836V7.5C19.7506 7.30326 19.7122 7.10834 19.6371 6.92652C19.5619 6.74469 19.4515 6.57955 19.3122 6.44062ZM13 14.25H10.75V16.5C10.75 16.6989 10.671 16.8897 10.5303 17.0303C10.3897 17.171 10.1989 17.25 10 17.25C9.80109 17.25 9.61032 17.171 9.46967 17.0303C9.32902 16.8897 9.25 16.6989 9.25 16.5V14.25H7C6.80109 14.25 6.61032 14.171 6.46967 14.0303C6.32902 13.8897 6.25 13.6989 6.25 13.5C6.25 13.3011 6.32902 13.1103 6.46967 12.9697C6.61032 12.829 6.80109 12.75 7 12.75H9.25V10.5C9.25 10.3011 9.32902 10.1103 9.46967 9.96967C9.61032 9.82902 9.80109 9.75 10 9.75C10.1989 9.75 10.3897 9.82902 10.5303 9.96967C10.671 10.1103 10.75 10.3011 10.75 10.5V12.75H13C13.1989 12.75 13.3897 12.829 13.5303 12.9697C13.671 13.1103 13.75 13.3011 13.75 13.5C13.75 13.6989 13.671 13.8897 13.5303 14.0303C13.3897 14.171 13.1989 14.25 13 14.25ZM13.75 6H6.25V5.25C6.25 4.25544 6.64509 3.30161 7.34835 2.59835C8.05161 1.89509 9.00544 1.5 10 1.5C10.9946 1.5 11.9484 1.89509 12.6517 2.59835C13.3549 3.30161 13.75 4.25544 13.75 5.25V6Z" fill="white"></path>
</svg>
